<?xml version="1.0" encoding="UTF-8"?>
<svg version="1.1" xmlns="http://www.w3.org/2000/svg" width="48" height="48">
<path d="M0 0 C2.64221296 1.39637581 3.95140991 2.73576885 6 5 C6 5.66 6 6.32 6 7 C6.66 7 7.32 7 8 7 C8.2475 6.401875 8.495 5.80375 8.75 5.1875 C10.21978853 2.61537008 11.4919259 1.56370294 14 0 C18.77153538 -0.86120395 22.79427124 -0.70334178 27 1.75 C30.68034577 5.890389 31.4833277 9.29435999 31.40234375 14.73828125 C30.72728205 18.53304558 28.71500538 20.35286975 26 23 C27.03047408 25.21948263 27.91596964 26.91273771 29.625 28.6875 C31.79158727 32.33130586 31.65808875 35.87263903 31 40 C28.9949912 43.8026029 27.57313738 45.61790841 24 48 C19.90351913 48.66982045 15.75157092 48.92568286 12.01171875 46.94921875 C10.375 45.625 10.375 45.625 8 43 C8 42.34 8 41.68 8 41 C7.34 41 6.68 41 6 41 C5.7525 41.598125 5.505 42.19625 5.25 42.8125 C3.78021147 45.38462992 2.5080741 46.43629706 0 48 C-4.77153538 48.86120395 -8.79427124 48.70334178 -13 46.25 C-16.68034577 42.109611 -17.4833277 38.70564001 -17.40234375 33.26171875 C-16.72728205 29.46695442 -14.71500538 27.64713025 -12 25 C-13.03047408 22.78051737 -13.91596964 21.08726229 -15.625 19.3125 C-17.79158727 15.66869414 -17.65808875 12.12736097 -17 8 C-12.96064746 0.33915897 -8.26955616 -1.29492275 0 0 Z M3.375 20.375 C0.77636223 22.65718683 0.77636223 22.65718683 1 25 C3.33333333 27.66666667 3.33333333 27.66666667 6 30 C8.34281317 30.22363777 8.34281317 30.22363777 10.625 27.625 C13.22363777 25.34281317 13.22363777 25.34281317 13 23 C10.66666667 20.33333333 10.66666667 20.33333333 8 18 C5.65718683 17.77636223 5.65718683 17.77636223 3.375 20.375 Z " fill="#A8FE83" transform="translate(17,0)"/>
<path d="M0 0 C3.24456926 1.62877377 5.3941214 3.75037538 7 7.0625 C7 9.55630751 6.24028866 10.84581444 5 13 C4.74863281 13.69351562 4.49726563 14.38703125 4.23828125 15.1015625 C2.19071868 19.89427994 -0.6527754 24.23382548 -3.3671875 28.67382812 C-5.80115821 32.72444506 -7.59225513 36.46169869 -9 41 C-11.125 43.875 -11.125 43.875 -13 46 C-16.47588641 41.76376343 -17.68734329 38.70792981 -17.47265625 33.19140625 C-16.67280933 29.48302509 -14.6796216 27.61263106 -12 25 C-13.03047408 22.78051737 -13.91596964 21.08726229 -15.625 19.3125 C-17.79158727 15.66869414 -17.65808875 12.12736097 -17 8 C-12.95222781 0.32319068 -8.27701372 -1.27239807 0 0 Z " fill="#32EA57" transform="translate(17,0)"/>
<path d="M0 0 C1.33804688 0.04060547 1.33804688 0.04060547 2.703125 0.08203125 C3.37859375 0.11683594 4.0540625 0.15164063 4.75 0.1875 C2.1849829 8.52380557 -1.4295348 15.9370462 -6.25 23.1875 C-8.1875 22.375 -8.1875 22.375 -10.25 21.1875 C-10.58 20.1975 -10.91 19.2075 -11.25 18.1875 C-11.91 18.1875 -12.57 18.1875 -13.25 18.1875 C-13.518125 18.826875 -13.78625 19.46625 -14.0625 20.125 C-15.25 22.1875 -15.25 22.1875 -18.25 23.1875 C-18.25 23.8475 -18.25 24.5075 -18.25 25.1875 C-17.63125 25.455625 -17.0125 25.72375 -16.375 26 C-14.25 27.1875 -14.25 27.1875 -12.25 30.1875 C-12.5591031 34.88323648 -14.15212549 38.42561263 -16.3125 42.5625 C-16.86035156 43.62210938 -17.40820312 44.68171875 -17.97265625 45.7734375 C-18.39417969 46.57007813 -18.81570312 47.36671875 -19.25 48.1875 C-20.87490954 48.21448189 -22.49994633 48.23388757 -24.125 48.25 C-25.48238281 48.26740234 -25.48238281 48.26740234 -26.8671875 48.28515625 C-29.25 48.1875 -29.25 48.1875 -31.25 47.1875 C-30.62217337 44.28137468 -29.69223357 41.87930359 -28.3125 39.25 C-27.2260189 37.17205325 -26.24457566 35.17268737 -25.4375 32.96875 C-23.38422713 28.1597688 -20.51015683 23.79727371 -17.79492188 19.33789062 C-17.35599609 18.60634766 -16.91707031 17.87480469 -16.46484375 17.12109375 C-16.06386475 16.46165771 -15.66288574 15.80222168 -15.24975586 15.12280273 C-14.2275514 13.14404455 -13.7757588 11.34162434 -13.25 9.1875 C-9.74897847 3.27198087 -7.15765711 -0.2825391 0 0 Z " fill="#52F062" transform="translate(36.25,-0.1875)"/>
<path d="M0 0 C0.87785156 -0.00515625 1.75570313 -0.0103125 2.66015625 -0.015625 C4.9375 0.25 4.9375 0.25 6.9375 2.25 C6.38320313 3.21421875 5.82890625 4.1784375 5.2578125 5.171875 C4.52598403 6.44788361 3.7942164 7.72392712 3.0625 9 C2.69769531 9.63421875 2.33289062 10.2684375 1.95703125 10.921875 C-1.73589699 16.74303485 -1.73589699 16.74303485 -3.0625 23.25 C-5.071331 28.26139223 -7.90186724 32.89050654 -11.0625 37.25 C-11.3925 37.25 -11.7225 37.25 -12.0625 37.25 C-12.41588623 34.28155565 -12.6042682 32.09401782 -10.94921875 29.515625 C-9.70746832 28.04651181 -8.38912082 26.64295186 -7.0625 25.25 C-8.09297408 23.03051737 -8.97846964 21.33726229 -10.6875 19.5625 C-12.85408727 15.91869414 -12.72058875 12.37736097 -12.0625 8.25 C-9.08674863 2.60633362 -6.46557038 -0.03808878 0 0 Z " fill="#07E448" transform="translate(12.0625,-0.25)"/>
<path d="M0 0 C2.31 0 4.62 0 7 0 C4.4349829 8.33630557 0.8204652 15.7495462 -4 23 C-6.66785184 22.0533429 -7.76675737 21.47801436 -9.02734375 18.89453125 C-8.98535382 14.44959708 -6.82725318 11.41983993 -4.5625 7.6875 C-4.12873047 6.94693359 -3.69496094 6.20636719 -3.24804688 5.44335938 C-2.17829429 3.62125332 -1.09083974 1.80956065 0 0 Z " fill="#7EF773" transform="translate(34,0)"/>
<path d="M0 0 C0.99 0.33 1.98 0.66 3 1 C4.85699796 7.03524336 2.71754511 10.70127404 0 16 C-0.391875 17.010625 -0.78375 18.02125 -1.1875 19.0625 C-3 21 -3 21 -5.1875 21.296875 C-7.48168033 21.31121363 -9.71678012 21.2153981 -12 21 C-8.52939556 13.62696477 -4.48565554 6.7995816 0 0 Z " fill="#64F369" transform="translate(20,27)"/>
<path d="M0 0 C0.66 0.33 1.32 0.66 2 1 C1.401875 2.134375 0.80375 3.26875 0.1875 4.4375 C-2.31722086 9.43812228 -3.95913284 14.62893345 -5.60546875 19.9609375 C-7.69208117 26.15754408 -11.00440898 31.83297434 -15 37 C-16.485 37.495 -16.485 37.495 -18 38 C-17.34921661 34.55560988 -15.97778754 32.08392935 -14.125 29.125 C-9.51779858 22.06656243 -9.51779858 22.06656243 -8 14 C-6.73416434 11.502235 -5.43909105 9.14200269 -4 6.75 C-3.6184375 6.1003125 -3.236875 5.450625 -2.84375 4.78125 C-1.90356117 3.18292899 -0.95279986 1.59083547 0 0 Z " fill="#23E851" transform="translate(18,2)"/>
<path d="M0 0 C0.66 0 1.32 0 2 0 C-0.28583206 7.02076991 -2.98220216 12.81995218 -7 19 C-7.66 18.67 -8.32 18.34 -9 18 C-7.54944178 14.20623235 -5.81541624 10.63083247 -4 7 C-3.4740625 5.63875 -3.4740625 5.63875 -2.9375 4.25 C-2 2 -2 2 0 0 Z M-9 19 C-8.67 19.66 -8.34 20.32 -8 21 C-9.26469969 23.72396857 -10.59603725 26.34903928 -12 29 C-12.92082623 30.83124765 -13.8375071 32.66458571 -14.75 34.5 C-15.5 36 -16.25 37.5 -17 39 C-17.66 38.67 -18.32 38.34 -19 38 C-17.62394084 33.23448987 -15.53221934 29.2751447 -12.875 25.125 C-12.50246094 24.53203125 -12.12992188 23.9390625 -11.74609375 23.328125 C-10.83635 21.8818657 -9.91896202 20.44041954 -9 19 Z " fill="#40ED5C" transform="translate(22,7)"/>
<path d="M0 0 C-1.54385129 4.14032846 -3.51028938 7.93553053 -5.625 11.8125 C-6.11226562 12.7087207 -6.11226562 12.7087207 -6.609375 13.62304688 C-7.40379151 15.08337135 -8.20155376 16.54187491 -9 18 C-9.89894866 14.83384996 -9.81736575 13.16729228 -9 10 C-9.33 9.01 -9.66 8.02 -10 7 C-4.82 0 -4.82 0 0 0 Z M-11 9 C-11 12 -11 12 -11 12 Z " fill="#5FF267" transform="translate(34,0)"/>
<path d="M0 0 C0.66 0 1.32 0 2 0 C1.34 1.98 0.68 3.96 0 6 C-0.99 6 -1.98 6 -3 6 C-1.125 1.125 -1.125 1.125 0 0 Z M-3 7 C-2.29296875 8.609375 -2.29296875 8.609375 -2 11 C-3.36328125 14.015625 -3.36328125 14.015625 -5.3125 17.25 C-6.26576172 18.86648437 -6.26576172 18.86648437 -7.23828125 20.515625 C-7.81964844 21.33546875 -8.40101562 22.1553125 -9 23 C-9.66 23 -10.32 23 -11 23 C-10.43555175 18.65136348 -8.84572036 15.82172345 -6.4375 12.1875 C-5.79683594 11.21167969 -5.15617187 10.23585938 -4.49609375 9.23046875 C-3.75552734 8.12638672 -3.75552734 8.12638672 -3 7 Z " fill="#8CF978" transform="translate(39,0)"/>
<path d="M0 0 C0.99 0.33 1.98 0.66 3 1 C2.16855469 2.42892578 2.16855469 2.42892578 1.3203125 3.88671875 C0.58836811 5.15354557 -0.14339305 6.42047827 -0.875 7.6875 C-1.23980469 8.31333984 -1.60460938 8.93917969 -1.98046875 9.58398438 C-3.55113708 12.31123576 -4.96457242 14.91044695 -6.125 17.84375 C-7.20866024 20.51419846 -8.60037478 21.48023736 -11 23 C-9.66685698 18.27340202 -7.59119219 14.34148637 -5.16796875 10.11328125 C-3.89471259 7.80949669 -2.93914294 5.45621999 -2 3 C-1.34 2.01 -0.68 1.02 0 0 Z " fill="#9AFC7D" transform="translate(41,1)"/>
<path d="M0 0 C0.66 0 1.32 0 2 0 C1.44380331 4.6889493 0.11817327 8.19924267 -2.0625 12.375 C-2.61035156 13.43460938 -3.15820312 14.49421875 -3.72265625 15.5859375 C-4.14417969 16.38257812 -4.56570312 17.17921875 -5 18 C-5.66 18 -6.32 18 -7 18 C-6.43796691 14.62780145 -5.59844439 12.0088365 -4 9 C-3.67 8.175 -3.34 7.35 -3 6.5 C-2.10465354 4.26163385 -1.10893734 2.13866487 0 0 Z " fill="#7FF773" transform="translate(22,30)"/>
<path d="M0 0 C0.99 0.33 1.98 0.66 3 1 C0.31403824 6.57006823 -2.32354762 12.01052891 -6 17 C-6.33 17 -6.66 17 -7 17 C-7.50217818 12.78170326 -7.28515801 11.36770375 -4.625 7.9375 C-3.75875 6.968125 -2.8925 5.99875 -2 5 C-0.6950516 2.2875382 -0.6950516 2.2875382 0 0 Z " fill="#15E64C" transform="translate(7,20)"/>
<path d="M0 0 C0.66 0.33 1.32 0.66 2 1 C0.90931332 4.77545388 0.0916909 7.47043472 -3 10 C-2.49287967 6.28111761 -1.88391785 3.26545761 0 0 Z M-4 10 C-3.04534217 12.16967689 -2.85598788 13.56328793 -3.6015625 15.82421875 C-4.35870385 17.5684743 -5.17609198 19.28627131 -6 21 C-7.32 21 -8.64 21 -10 21 C-8.18690997 17.22272911 -6.0926741 13.62730178 -4 10 Z " fill="#71F56E" transform="translate(21,27)"/>
<path d="M0 0 C0.66 0.33 1.32 0.66 2 1 C-4.96294874 15.99712037 -4.96294874 15.99712037 -12 19 C-9.82046238 14.22356648 -7.80049103 10.67789455 -4 7 C-2.95377125 5.02379014 -1.94560065 3.0262871 -1 1 C-0.67 0.67 -0.34 0.34 0 0 Z " fill="#9BFC7D" transform="translate(29,28)"/>
<path d="M0 0 C0.66 0.33 1.32 0.66 2 1 C1.01 1.99 0.02 2.98 -1 4 C-0.67 2.68 -0.34 1.36 0 0 Z M-2 4 C-1.28515625 5.609375 -1.28515625 5.609375 -1 8 C-2.43359375 11.015625 -2.43359375 11.015625 -4.4375 14.25 C-5.09621094 15.32765625 -5.75492188 16.4053125 -6.43359375 17.515625 C-6.95050781 18.33546875 -7.46742187 19.1553125 -8 20 C-8.71484375 18.390625 -8.71484375 18.390625 -9 16 C-7.56640625 12.984375 -7.56640625 12.984375 -5.5625 9.75 C-4.90378906 8.67234375 -4.24507812 7.5946875 -3.56640625 6.484375 C-3.04949219 5.66453125 -2.53257813 4.8446875 -2 4 Z " fill="#71F56E" transform="translate(34,0)"/>
<path d="M0 0 C0.99 0.66 1.98 1.32 3 2 C1.73769041 4.29674382 0.46574267 6.58714709 -0.8125 8.875 C-1.16892578 9.52597656 -1.52535156 10.17695313 -1.89257812 10.84765625 C-3.70081103 14.06597903 -4.87951745 15.9196783 -8 18 C-6.7677699 13.92416198 -5.22447827 10.61477719 -3 7 C-2.30686092 5.34416775 -1.63525576 3.67889021 -1 2 C-0.67 1.34 -0.34 0.68 0 0 Z " fill="#15E64C" transform="translate(16,0)"/>
<path d="M0 0 C0.33 0.99 0.66 1.98 1 3 C-0.40445835 5.2636564 -2.1967913 7.0208685 -4 9 C-4.66 8.67 -5.32 8.34 -6 8 C-2.25 1.125 -2.25 1.125 0 0 Z " fill="#8DFA79" transform="translate(23,38)"/>
</svg>
